<svg data-v-fde0c5aa="" xmlns="http://www.w3.org/2000/svg" viewBox="0 0 300 300" class="iconLeft"><!----><defs data-v-fde0c5aa=""><!----></defs><rect data-v-fde0c5aa="" fill="#FCF4ED" x="0" y="0" width="300px" height="300px" class="logo-background-square"></rect><defs data-v-fde0c5aa=""><!----></defs><g data-v-fde0c5aa="" id="50cad169-764f-4a94-bf48-8f4b2a0a810e" fill="#321E0F" transform="matrix(2.39555603447127,0,0,2.39555603447127,100.69552078054207,128.65559552724875)"><path d="M0.28 3.35L8.32 3.35L8.32 5.21L5.39 5.21L5.39 13.05L3.21 13.05L3.21 5.21L0.28 5.21L0.28 3.35ZM13.40 5.81L13.05 7.53Q12.77 7.46 12.39 7.38Q12.01 7.31 11.58 7.31L11.58 7.31Q11.38 7.31 11.11 7.34Q10.84 7.38 10.70 7.42L10.70 7.42L10.70 13.05L8.61 13.05L8.61 6.08Q9.17 5.88 9.93 5.71Q10.70 5.53 11.63 5.53L11.63 5.53Q11.80 5.53 12.04 5.55Q12.28 5.57 12.52 5.61Q12.75 5.64 12.99 5.69Q13.23 5.74 13.40 5.81L13.40 5.81ZM16.60 5.68L16.60 13.05L14.52 13.05L14.52 5.68L16.60 5.68ZM16.80 3.56L16.80 3.56Q16.80 4.13 16.43 4.46Q16.06 4.79 15.55 4.79L15.55 4.79Q15.05 4.79 14.68 4.46Q14.31 4.13 14.31 3.56L14.31 3.56Q14.31 2.98 14.68 2.65Q15.05 2.32 15.55 2.32L15.55 2.32Q16.06 2.32 16.43 2.65Q16.80 2.98 16.80 3.56ZM23.28 9.42L23.28 9.42Q23.28 8.46 22.85 7.88Q22.41 7.29 21.56 7.29L21.56 7.29Q21.28 7.29 21.04 7.31Q20.80 7.34 20.65 7.36L20.65 7.36L20.65 11.13Q20.85 11.26 21.16 11.34Q21.48 11.42 21.80 11.42L21.80 11.42Q23.28 11.42 23.28 9.42ZM25.41 9.37L25.41 9.37Q25.41 10.22 25.20 10.92Q24.99 11.62 24.58 12.12Q24.18 12.63 23.58 12.91Q22.97 13.19 22.19 13.19L22.19 13.19Q21.76 13.19 21.38 13.10Q21 13.02 20.65 12.87L20.65 12.87L20.65 15.64L18.56 15.64L18.56 5.94Q18.84 5.85 19.21 5.77Q19.57 5.70 19.97 5.64Q20.37 5.59 20.78 5.55Q21.20 5.52 21.57 5.52L21.57 5.52Q22.48 5.52 23.20 5.79Q23.91 6.06 24.40 6.56Q24.89 7.06 25.15 7.77Q25.41 8.48 25.41 9.37ZM31.58 13.24L31.58 13.24Q29.22 13.24 27.98 11.93Q26.74 10.61 26.74 8.19L26.74 8.19Q26.74 6.99 27.12 6.04Q27.50 5.10 28.15 4.45Q28.81 3.79 29.72 3.46Q30.63 3.12 31.70 3.12L31.70 3.12Q32.31 3.12 32.82 3.21Q33.32 3.30 33.70 3.42Q34.08 3.54 34.33 3.67Q34.58 3.79 34.69 3.86L34.69 3.86L34.06 5.63Q33.61 5.39 33.02 5.22Q32.42 5.05 31.67 5.05L31.67 5.05Q31.16 5.05 30.68 5.22Q30.20 5.39 29.83 5.76Q29.46 6.13 29.23 6.72Q29.01 7.31 29.01 8.15L29.01 8.15Q29.01 8.82 29.16 9.40Q29.30 9.98 29.63 10.40Q29.96 10.82 30.49 11.07Q31.02 11.31 31.78 11.31L31.78 11.31Q32.26 11.31 32.63 11.26Q33.01 11.20 33.31 11.12Q33.60 11.05 33.82 10.95Q34.05 10.85 34.23 10.77L34.23 10.77L34.83 12.52Q34.37 12.80 33.53 13.02Q32.69 13.24 31.58 13.24ZM38.18 13.05L36.09 13.05L36.09 2.52L38.18 2.18L38.18 5.71Q38.39 5.64 38.72 5.58Q39.05 5.52 39.35 5.52L39.35 5.52Q40.25 5.52 40.84 5.76Q41.44 6.01 41.80 6.45Q42.15 6.90 42.30 7.52Q42.45 8.13 42.45 8.89L42.45 8.89L42.45 13.05L40.36 13.05L40.36 9.14Q40.36 8.13 40.10 7.71Q39.84 7.29 39.14 7.29L39.14 7.29Q38.86 7.29 38.62 7.34Q38.37 7.39 38.18 7.45L38.18 7.45L38.18 13.05ZM43.99 9.42L43.99 9.42Q43.99 8.44 44.29 7.71Q44.59 6.97 45.08 6.48Q45.57 5.99 46.21 5.74Q46.84 5.49 47.52 5.49L47.52 5.49Q49.08 5.49 49.99 6.45Q50.90 7.41 50.90 9.27L50.90 9.27Q50.90 9.45 50.89 9.67Q50.88 9.88 50.86 10.05L50.86 10.05L46.13 10.05Q46.20 10.70 46.73 11.07Q47.26 11.45 48.16 11.45L48.16 11.45Q48.73 11.45 49.29 11.35Q49.84 11.24 50.19 11.09L50.19 11.09L50.47 12.78Q50.30 12.87 50.02 12.95Q49.74 13.03 49.40 13.10Q49.06 13.16 48.66 13.20Q48.27 13.24 47.88 13.24L47.88 13.24Q46.89 13.24 46.15 12.95Q45.42 12.66 44.93 12.14Q44.45 11.63 44.22 10.93Q43.99 10.23 43.99 9.42ZM46.13 8.62L48.89 8.62Q48.87 8.36 48.80 8.11Q48.72 7.85 48.56 7.66Q48.40 7.46 48.15 7.34Q47.91 7.21 47.54 7.21L47.54 7.21Q47.19 7.21 46.94 7.33Q46.69 7.45 46.52 7.64Q46.35 7.84 46.26 8.10Q46.17 8.36 46.13 8.62L46.13 8.62ZM52.16 9.37L52.16 9.37Q52.16 8.57 52.42 7.86Q52.68 7.15 53.17 6.63Q53.66 6.10 54.36 5.80Q55.06 5.49 55.96 5.49L55.96 5.49Q56.55 5.49 57.04 5.59Q57.53 5.70 57.99 5.89L57.99 5.89L57.55 7.56Q57.26 7.45 56.91 7.36Q56.56 7.28 56.13 7.28L56.13 7.28Q55.20 7.28 54.75 7.85Q54.29 8.43 54.29 9.37L54.29 9.37Q54.29 10.36 54.72 10.91Q55.15 11.45 56.21 11.45L56.21 11.45Q56.59 11.45 57.02 11.38Q57.46 11.31 57.82 11.16L57.82 11.16L58.11 12.87Q57.75 13.02 57.20 13.13Q56.66 13.24 56.00 13.24L56.00 13.24Q54.99 13.24 54.26 12.94Q53.54 12.64 53.07 12.12Q52.60 11.61 52.38 10.90Q52.16 10.19 52.16 9.37ZM61.60 2.18L61.60 8.34Q61.91 8.01 62.24 7.64Q62.57 7.28 62.87 6.92Q63.18 6.57 63.46 6.24Q63.73 5.92 63.92 5.68L63.92 5.68L66.40 5.68Q65.66 6.54 64.95 7.31Q64.25 8.09 63.41 8.92L63.41 8.92Q63.83 9.30 64.27 9.82Q64.72 10.35 65.14 10.91Q65.56 11.47 65.91 12.03Q66.26 12.59 66.50 13.05L66.50 13.05L64.11 13.05Q63.88 12.68 63.60 12.24Q63.31 11.80 62.99 11.36Q62.66 10.92 62.31 10.51Q61.95 10.11 61.60 9.83L61.60 9.83L61.60 13.05L59.51 13.05L59.51 2.52L61.60 2.18Z"></path></g><defs data-v-fde0c5aa=""><linearGradient data-v-fde0c5aa="" gradientTransform="rotate(25)" id="3bd5fead-9f86-4e67-a640-afb71fdc8804" x1="0%" y1="0%" x2="100%" y2="0%"><stop data-v-fde0c5aa="" offset="0%" stop-color="#DA6E2A" stop-opacity="1"></stop><stop data-v-fde0c5aa="" offset="100%" stop-color="#E39E5A" stop-opacity="1"></stop></linearGradient></defs><g data-v-fde0c5aa="" id="d82f4435-17d9-48e8-948c-fc1c4b7fbf04" stroke="none" fill="url(#3bd5fead-9f86-4e67-a640-afb71fdc8804)" transform="matrix(1.5114461397828047,0,0,1.5114461397828047,40,125.81686176347512)"><path d="M15.965 16.258l.707-.707 10.39 10.39-.707.707z"></path><path d="M4.935 26.357L26.018 5.274l.707.707L5.642 27.065z"></path><path d="M31 1v4.194h-4.194V1H31m1-1h-6.194v6.194H32V0zM31 26.806V31h-4.194v-4.194H31m1-1h-6.194V32H32v-6.194zM5.194 26.806V31H1v-4.194h4.194m1-1H0V32h6.194v-6.194z"></path></g><!----></svg>